<svg t="1585017164834" class="icon" viewBox="0 0 1027 1024" version="1.1" xmlns="http://www.w3.org/2000/svg" p-id="1160" width="200" height="200"><path d="M765.804069 949.656338c0 39.968701-27.978091 71.943662-63.949922 71.943662H65.552426c-35.172457 0-63.949922-31.974961-63.949922-71.943662 0-146.285446 123.103599-282.17903 249.404695-335.737089a302.16338 302.16338 0 0 1-122.304226-247.805947v-73.54241C129.502347 131.896714 243.013459 0.799374 385.302034 0.799374s254.200939 131.09734 254.200939 291.771518v73.54241c0 103.918623-48.761815 195.846635-121.504851 247.805947 125.501721 53.558059 248.605321 189.451643 248.605321 335.737089z" p-id="1161"></path><path d="M848.938967 945.659468h127.899844c27.178717 0 48.761815-25.579969 48.761815-55.956182 0-111.912363-94.326135-215.830986-190.251017-256.599061 55.956182-39.968701 92.727387-109.514241 92.727386-189.451643v-55.956181c0-123.103599-87.931142-223.824726-195.047261-223.824727-12.789984 0-26.379343 1.598748-39.169327 4.796245 15.98748 37.570579 23.981221 79.937402 23.981221 123.902973v73.54241c0 103.918623-23.981221 183.856025-87.931143 247.805947 118.307355 35.172457 218.229108 187.053521 219.827856 331.740219z" p-id="1162"></path></svg>
