<svg t="1585017349993" class="icon" viewBox="0 0 1024 1024" version="1.1" xmlns="http://www.w3.org/2000/svg" p-id="1445" width="200" height="200"><path d="M564.904032 35.909914l111.741177 237.050925c7.981513 18.357479 24.742689 31.127899 44.696471 34.320505l249.821345 37.513109c48.687227 7.981513 67.842857 70.237311 32.724202 106.154118l-181.180337 183.57479a63.852101 63.852101 0 0 0-15.963025 55.870589l42.302017 260.197311c7.981513 50.28353-43.100168 89.392941-86.200336 65.448404l-223.482354-122.915295a56.66874 56.66874 0 0 0-55.870588 0l-223.482354 122.915295c-43.100168 23.944538-94.181849-15.164874-86.200336-65.448404l43.100168-260.197311a63.852101 63.852101 0 0 0-17.559328-55.870589l-180.382185-183.57479C-16.150087 415.031764 3.005544 352.775966 50.894619 344.794453l250.619497-37.513109c19.15563-3.192605 35.916807-15.963025 44.696471-34.320505l111.741176-237.050925a58.265042 58.265042 0 0 1 106.952269 0z" p-id="1446"></path></svg>
